# xmcd
#
# Track frame offsets: 
#        150
#        18104
#        28285
#        49656
#        68175
#        87279
#        102419
#        122665
#        139784
#        161957
#        179887
#        200228
#
# Disc length: 2915 seconds
#
# Revision: 2
# Processed by: cddbd v1.5.2PL0 Copyright (c) Steve Scherf et al.
# Submitted via: ExactAudioCopy v1.0b4
#
DISCID=b30b610c
DTITLE=JW Jones - Midnight Memphis Sun
DYEAR=2010
DGENRE=Blues, Jump Blues
TTITLE0=Off the Market
TTITLE1=Love grows cold
TTITLE2=Kissin' in Memphis
TTITLE3=Cuts like a knife
TTITLE4=Born operator
TTITLE5=Burnt child
TTITLE6=Right on time
TTITLE7=I don't go for that
TTITLE8=Mean streak
TTITLE9=Make a move
TTITLE10=Howlin' with Hubert
TTITLE11=Games
EXTD=
EXTT0=
EXTT1=
EXTT2=
EXTT3=
EXTT4=
EXTT5=
EXTT6=
EXTT7=
EXTT8=
EXTT9=
EXTT10=
EXTT11=
PLAYORDER=
